<svg width="12" height="13" viewBox="0 0 12 13" fill="none" xmlns="http://www.w3.org/2000/svg">
<path fill-rule="evenodd" clip-rule="evenodd" d="M6.67339 0.91974C6.54739 0.662826 6.28617 0.5 6.00002 0.5C5.71387 0.5 5.45266 0.662825 5.32665 0.919739L4.00041 3.62383L1.39079 4.008C1.11006 4.04932 0.87669 4.24554 0.787785 4.51501C0.698879 4.78448 0.769661 5.08105 0.970678 5.28132L2.92678 7.23015L2.26863 10.129C2.20408 10.4134 2.31017 10.7093 2.54064 10.8879C2.77112 11.0665 3.08421 11.0954 3.34342 10.9618L6.00002 9.59363L8.65662 10.9618C8.91583 11.0954 9.22892 11.0665 9.4594 10.8879C9.68988 10.7093 9.79596 10.4134 9.73141 10.129L9.07326 7.23015L11.0294 5.28132C11.2304 5.08105 11.3012 4.78448 11.2123 4.51501C11.1234 4.24554 10.89 4.04932 10.6093 4.008L7.99964 3.62383L6.67339 0.91974Z" fill="#FFCC00"/>
</svg>
