<svg width="28" height="28" viewBox="0 0 28 28" fill="none" xmlns="http://www.w3.org/2000/svg">
<path d="M12.4482 23.2982C12.1682 23.3216 11.8882 23.3332 11.6082 23.3332C10.2432 23.3332 8.94824 23.0066 7.79324 22.4349L3.25491 23.0882L3.94326 18.5266H3.95492C3.48825 17.4999 3.20825 16.3682 3.20825 15.1666C3.20825 12.9616 4.10658 10.9666 5.55325 9.49658" stroke="white" stroke-width="1.5" stroke-linecap="round" stroke-linejoin="round"/>
<path d="M12.6699 13.7433C13.1854 13.7433 13.6032 13.3359 13.6032 12.8333C13.6032 12.3308 13.1854 11.9233 12.6699 11.9233C12.1544 11.9233 11.7366 12.3308 11.7366 12.8333C11.7366 13.3359 12.1544 13.7433 12.6699 13.7433Z" fill="white"/>
<path d="M16.4033 13.7433C16.9188 13.7433 17.3366 13.3359 17.3366 12.8333C17.3366 12.3308 16.9188 11.9233 16.4033 11.9233C15.8878 11.9233 15.47 12.3308 15.47 12.8333C15.47 13.3359 15.8878 13.7433 16.4033 13.7433Z" fill="white"/>
<path d="M20.125 13.7433C20.6405 13.7433 21.0583 13.3359 21.0583 12.8333C21.0583 12.3308 20.6405 11.9233 20.125 11.9233C19.6095 11.9233 19.1917 12.3308 19.1917 12.8333C19.1917 13.3359 19.6095 13.7433 20.125 13.7433Z" fill="white"/>
<path d="M24.0567 16.1932L24.7451 20.7548L20.2068 20.1015C19.3901 20.5098 18.5034 20.7898 17.5584 20.9182C17.1851 20.9765 16.7884 20.9998 16.3918 20.9998C11.7484 20.9998 8.00342 17.3482 8.00342 12.8332C8.00342 10.5815 8.92508 8.57484 10.4417 7.09317C11.9467 5.58817 14.0584 4.6665 16.4034 4.6665C21.0467 4.6665 24.7918 8.31817 24.7918 12.8332C24.7918 14.0348 24.5118 15.1665 24.0451 16.1932H24.0567V16.1932Z" stroke="white" stroke-width="1.5" stroke-linecap="round" stroke-linejoin="round"/>
</svg>
