<svg width="24" height="24" viewBox="0 0 24 24" fill="none" xmlns="http://www.w3.org/2000/svg">
<path d="M6.28 10.38C8.22956 10.38 9.81 8.84885 9.81 6.96004C9.81 5.07123 8.22956 3.54004 6.28 3.54004C4.33043 3.54004 2.75 5.07123 2.75 6.96004C2.75 8.84885 4.33043 10.38 6.28 10.38Z" stroke="#020202" stroke-width="1.5" stroke-linecap="round" stroke-linejoin="round"/>
<path d="M21.2501 6.95996H9.81006" stroke="#020202" stroke-width="1.5" stroke-linecap="round" stroke-linejoin="round"/>
<path d="M17.7199 20.4601C19.6695 20.4601 21.2499 18.9289 21.2499 17.0401C21.2499 15.1513 19.6695 13.6201 17.7199 13.6201C15.7704 13.6201 14.1899 15.1513 14.1899 17.0401C14.1899 18.9289 15.7704 20.4601 17.7199 20.4601Z" stroke="#020202" stroke-width="1.5" stroke-linecap="round" stroke-linejoin="round"/>
<path d="M2.75 17.04H14.19" stroke="#020202" stroke-width="1.5" stroke-linecap="round" stroke-linejoin="round"/>
</svg>
