<svg width="24" height="24" viewBox="0 0 24 24" fill="none" xmlns="http://www.w3.org/2000/svg">
<path d="M20.22 16.62C20.22 17.47 19.53 18.16 18.68 18.16H5.32003C4.47003 18.16 3.78003 17.47 3.78003 16.62C3.78003 15.77 4.47003 15.08 5.32003 15.08H5.83003V9.94002C5.83003 6.54002 8.59003 3.77002 12 3.77002C13.7 3.77002 15.24 4.46002 16.36 5.58002C17.48 6.69002 18.17 8.23002 18.17 9.94002V15.08H18.68C19.53 15.08 20.22 15.77 20.22 16.62Z" stroke="#020202" stroke-width="1.5" stroke-linecap="round" stroke-linejoin="round"/>
<path d="M12 3.78V2.75" stroke="#020202" stroke-width="1.5" stroke-linecap="round" stroke-linejoin="round"/>
<path d="M15.0799 18.1699C15.0799 19.8799 13.6999 21.2499 11.9999 21.2499C10.2999 21.2499 8.91992 19.8699 8.91992 18.1699H15.0799Z" stroke="#020202" stroke-width="1.5" stroke-linecap="round" stroke-linejoin="round"/>
</svg>
